HIERARCHY
ROOT Hips
{
	OFFSET -0.001795 -0.223333 0.028219
	CHANNELS 6 Xposition Yposition Zposition Zrotation Yrotation Xrotation 
	JOINT LeftUpLeg
	{
		OFFSET 0.069520 -0.091406 -0.006815
		CHANNELS 3 Zrotation Yrotation Xrotation
		JOINT LeftLeg
		{
			OFFSET 0.034277 -0.375199 -0.004496
			CHANNELS 3 Zrotation Yrotation Xrotation
			JOINT LeftFoot
			{
				OFFSET -0.013596 -0.397961 -0.043693
				CHANNELS 3 Zrotation Yrotation Xrotation
				JOINT LeftToe
				{
					OFFSET 0.026358 -0.055791 0.119288
					CHANNELS 3 Zrotation Yrotation Xrotation
					End Site
					{
						OFFSET 0.000000 0.000000 0.000000
					}
				}
			}
		}
	}
	JOINT RightUpLeg
	{
		OFFSET -0.067670 -0.090522 -0.004320
		CHANNELS 3 Zrotation Yrotation Xrotation
		JOINT RightLeg
		{
			OFFSET -0.038290 -0.382569 -0.008850
			CHANNELS 3 Zrotation Yrotation Xrotation
			JOINT RightFoot
			{
				OFFSET 0.015774 -0.398415 -0.042312
				CHANNELS 3 Zrotation Yrotation Xrotation
				JOINT RightToe
				{
					OFFSET -0.025372 -0.048144 0.123348
					CHANNELS 3 Zrotation Yrotation Xrotation
					End Site
					{
						OFFSET 0.000000 0.000000 0.000000
					}
				}
			}
		}
	}
	JOINT Spine
	{
		OFFSET -0.002533 0.108963 -0.026696
		CHANNELS 3 Zrotation Yrotation Xrotation
		JOINT Spine1
		{
			OFFSET 0.005487 0.135180 0.001092
			CHANNELS 3 Zrotation Yrotation Xrotation
			JOINT Spine2
			{
				OFFSET 0.001457 0.052922 0.025425
				CHANNELS 3 Zrotation Yrotation Xrotation
				JOINT Neck
				{
					OFFSET -0.002778 0.213870 -0.042857
					CHANNELS 3 Zrotation Yrotation Xrotation
					JOINT Head
					{
						OFFSET 0.005152 0.064970 0.051349
						CHANNELS 3 Zrotation Yrotation Xrotation
						End Site
						{
							OFFSET 0.000000 0.000000 0.000000
						}
					}
				}
				JOINT LeftShoulder
				{
					OFFSET 0.078845 0.121749 -0.034090
					CHANNELS 3 Zrotation Yrotation Xrotation
					JOINT LeftArm
					{
						OFFSET 0.090977 0.030469 -0.008868
						CHANNELS 3 Zrotation Yrotation Xrotation
						JOINT LeftForeArm
						{
							OFFSET 0.259612 -0.012772 -0.027456
							CHANNELS 3 Zrotation Yrotation Xrotation
							JOINT LeftHand
							{
								OFFSET 0.249234 0.008986 -0.001171
								CHANNELS 3 Zrotation Yrotation Xrotation
								End Site
								{
									OFFSET 0.000000 0.000000 0.000000
								}
							}
						}
					}
				}
				JOINT RightShoulder
				{
					OFFSET -0.081759 0.118833 -0.038615
					CHANNELS 3 Zrotation Yrotation Xrotation
					JOINT RightArm
					{
						OFFSET -0.096012 0.032551 -0.009143
						CHANNELS 3 Zrotation Yrotation Xrotation
						JOINT RightForeArm
						{
							OFFSET -0.253742 -0.013329 -0.021401
							CHANNELS 3 Zrotation Yrotation Xrotation
							JOINT RightHand
							{
								OFFSET -0.255298 0.007772 -0.005559
								CHANNELS 3 Zrotation Yrotation Xrotation
								End Site
								{
									OFFSET 0.000000 0.000000 0.000000
								}
							}
						}
					}
				}
			}
		}
	}
}
MOTION
Frames: 8
Frame Time: 0.050000
-1.066490 0.947145 -0.254078 1.522621 -12.953522 2.675665 5.086906 -0.291842 -8.224530 -1.111745 0.156000 11.616368 0.063510 1.927078 6.815322 0.000000 0.000000 0.000000 -18.995764 0.630315 -15.646788 0.763509 0.269425 7.285898 -0.455990 -12.597248 29.564148 0.000000 0.000000 0.000000 6.898422 -1.980622 28.422175 -2.962312 1.018421 -23.401341 2.129245 10.203942 24.343098 23.326133 -14.698854 -17.707783 0.000000 0.000000 0.000000 -15.294101 -18.534719 7.859767 -33.338131 -11.191000 -2.445444 -12.673779 -68.248124 11.257820 0.000000 0.000000 0.000000 29.582226 16.047527 9.839470 39.561047 43.110315 7.943331 -7.868576 23.139134 -0.492497 0.000000 0.000000 0.000000 
-1.095850 0.944996 -0.254277 1.970275 -11.147532 3.457439 5.893903 -0.281882 -9.000166 -1.016739 0.081681 11.109011 0.885202 3.819636 7.889017 0.000000 0.000000 0.000000 -18.637540 0.534204 -15.447147 1.512606 0.158895 7.569836 -2.564809 -14.958294 29.756351 0.000000 0.000000 0.000000 7.947536 -2.405974 28.349233 -2.896462 1.037055 -22.943505 2.489011 10.629960 24.436863 25.361177 -15.610328 -18.853265 0.000000 0.000000 0.000000 -16.261368 -19.323350 8.024114 -34.589563 -10.232044 -2.656525 -17.558019 -68.651136 14.487524 0.000000 0.000000 0.000000 28.837107 16.983134 10.963832 36.723429 44.978895 7.560494 -10.461205 19.408529 -0.773697 0.000000 0.000000 0.000000 
-1.124609 0.945150 -0.253843 2.368722 -9.850748 3.937721 6.346290 -0.284574 -9.423384 -0.531400 -0.060190 11.023805 1.903423 5.986514 9.013481 0.000000 0.000000 0.000000 -17.956918 0.476867 -15.480631 2.683268 -0.007368 8.201968 -5.152272 -17.948874 29.899006 0.000000 0.000000 0.000000 8.935228 -2.814501 28.905927 -2.893089 1.063015 -22.079559 2.621471 10.443732 24.229514 25.471664 -15.128506 -19.896861 0.000000 0.000000 0.000000 -16.093171 -19.181057 7.786995 -36.625990 -10.404739 -2.673894 -21.846139 -68.782910 17.482767 0.000000 0.000000 0.000000 26.258666 18.281907 11.543955 35.226278 46.593213 7.678153 -11.225008 16.598584 -0.743593 0.000000 0.000000 0.000000 
-1.153074 0.946986 -0.253589 3.043528 -8.618176 4.481425 6.667732 -0.290265 -9.311897 -0.393912 -0.109717 9.682679 2.745903 7.876962 10.793257 0.000000 0.000000 0.000000 -17.301860 0.427956 -15.718677 3.698125 -0.158477 9.216098 -6.637617 -19.416616 27.035950 0.000000 0.000000 0.000000 9.935525 -3.218905 29.136883 -3.064819 1.133975 -22.367322 2.866337 9.986312 24.619354 26.440508 -15.206917 -21.414899 0.000000 0.000000 0.000000 -16.231404 -19.718015 8.037187 -38.259246 -10.231522 -2.832320 -25.802233 -70.275329 20.894495 0.000000 0.000000 0.000000 24.711184 18.694378 11.615618 33.985165 47.272520 7.444905 -10.889534 15.359741 -0.644575 0.000000 0.000000 0.000000 
-1.180699 0.948214 -0.254090 3.527487 -7.491511 4.583035 6.907946 -0.286858 -8.802127 0.165873 -0.228059 8.540848 3.505131 9.480304 12.200697 0.000000 0.000000 0.000000 -16.239903 0.413580 -15.689527 4.367311 -0.272166 10.282431 -7.958054 -20.873045 24.439542 0.000000 0.000000 0.000000 10.667732 -3.539924 29.377762 -2.940545 1.129969 -21.829959 2.485626 9.418425 24.741969 26.076876 -14.783575 -21.724013 0.000000 0.000000 0.000000 -15.768004 -19.294376 7.763885 -39.113330 -11.578860 -2.495463 -31.246302 -70.918327 25.200251 0.000000 0.000000 0.000000 22.258008 19.423071 11.586366 34.254901 48.642981 8.082959 -11.548110 13.954686 -0.630113 0.000000 0.000000 0.000000 
-1.206949 0.950121 -0.256066 3.879323 -6.259289 4.706832 7.399017 -0.272843 -8.465073 0.177430 -0.226584 7.581852 4.335729 11.107303 13.287949 0.000000 0.000000 0.000000 -15.447901 0.384493 -15.704724 5.370889 -0.474144 11.178431 -8.706514 -21.685293 22.483414 0.000000 0.000000 0.000000 11.782826 -4.014372 29.824151 -3.515370 1.309376 -21.723421 2.734902 8.677006 24.496080 25.896548 -14.550178 -21.895084 0.000000 0.000000 0.000000 -15.619185 -20.025352 8.127283 -39.342016 -13.055814 -2.040632 -31.050156 -70.959816 25.126816 0.000000 0.000000 0.000000 20.529787 19.410828 11.199092 33.713181 48.872192 8.045932 -11.037466 14.468104 -0.620342 0.000000 0.000000 0.000000 
-1.231148 0.952126 -0.259217 4.525165 -5.410992 4.977828 7.706843 -0.285733 -8.992250 0.110438 -0.214829 7.228118 4.871998 12.283170 15.400151 0.000000 0.000000 0.000000 -14.771188 0.385210 -15.772293 5.901076 -0.597239 11.386046 -9.355830 -22.496280 20.725085 0.000000 0.000000 0.000000 12.399085 -4.314439 30.125072 -3.570215 1.341085 -21.796154 2.477630 8.113091 24.582015 25.040098 -13.886427 -22.079792 0.000000 0.000000 0.000000 -15.202522 -20.255065 8.232034 -38.991075 -15.336524 -1.370141 -27.282551 -71.122812 22.445906 0.000000 0.000000 0.000000 18.898422 19.840587 11.078976 34.164307 49.388590 8.455696 -11.200250 14.982515 -0.668968 0.000000 0.000000 0.000000 
-1.252871 0.954675 -0.262824 5.353488 -4.388645 5.266114 7.557848 -0.340719 -9.682523 0.011048 -0.203482 7.093372 5.485286 13.489455 17.030598 0.000000 0.000000 0.000000 -14.374145 0.354667 -15.946128 6.498157 -0.743314 11.281691 -10.616338 -24.191624 20.380121 0.000000 0.000000 0.000000 13.421541 -4.687096 29.915301 -4.222102 1.535055 -21.369835 2.744470 7.625560 24.384798 24.035461 -13.284627 -21.721709 0.000000 0.000000 0.000000 -14.273137 -21.492804 8.743839 -37.671360 -18.159093 -0.533605 -18.210413 -71.007643 15.722023 0.000000 0.000000 0.000000 17.929084 19.277635 10.581740 33.778504 49.395018 8.367578 -10.197088 16.174358 -0.628967 0.000000 0.000000 0.000000 
